<svg xmlns="http://www.w3.org/2000/svg" width="1000" height="470" viewBox="0 0 1000 470">
  <style>text{font-family:Arial,sans-serif;fill:#111}.title{font-size:22px;font-weight:700}.sub{font-size:12px;fill:#555}.label{font-size:13px}.value{font-size:13px;font-weight:700}.grid{stroke:#ddd}.enc{fill:#3fb37f}.dec{fill:#5b7cfa}</style>
  <text class="title" x="70" y="34">ZChain native C release baseline — Apple M4</text>
  <text class="sub" x="70" y="54">In-memory codec benchmark, -O3 -DNDEBUG -march=native, 100 iterations</text>
  <line class="grid" x1="70" y1="360" x2="950" y2="360"/><line class="grid" x1="70" y1="300" x2="950" y2="300"/><line class="grid" x1="70" y1="240" x2="950" y2="240"/><line class="grid" x1="70" y1="180" x2="950" y2="180"/><line class="grid" x1="70" y1="120" x2="950" y2="120"/><line class="grid" x1="70" y1="60" x2="950" y2="60"/>
  <text class="label" x="60" y="364" text-anchor="end">0</text><text class="label" x="60" y="304" text-anchor="end">20</text><text class="label" x="60" y="244" text-anchor="end">40</text><text class="label" x="60" y="184" text-anchor="end">60</text><text class="label" x="60" y="124" text-anchor="end">80</text><text class="label" x="60" y="64" text-anchor="end">100 MiB/s</text>
  <rect class="enc" x="120" y="170.55" width="58" height="189.45" rx="7"/><rect class="dec" x="185" y="326.43" width="58" height="33.57" rx="7"/><text class="value" x="149" y="162" text-anchor="middle">63.15</text><text class="value" x="214" y="318" text-anchor="middle">11.19</text><text class="label" x="182" y="390" text-anchor="middle">All 18 files</text>
  <rect class="enc" x="310" y="227.43" width="58" height="132.57" rx="7"/><rect class="dec" x="375" y="325.02" width="58" height="34.98" rx="7"/><text class="value" x="339" y="219" text-anchor="middle">44.19</text><text class="value" x="404" y="317" text-anchor="middle">11.66</text><text class="label" x="371" y="390" text-anchor="middle">Ethereum blocks</text>
  <rect class="enc" x="500" y="69.48" width="58" height="290.52" rx="7"/><rect class="dec" x="565" y="328.86" width="58" height="31.14" rx="7"/><text class="value" x="529" y="61" text-anchor="middle">96.84</text><text class="value" x="594" y="321" text-anchor="middle">10.38</text><text class="label" x="561" y="390" text-anchor="middle">Ethereum receipts</text>
  <rect class="enc" x="690" y="263.91" width="58" height="96.09" rx="7"/><rect class="dec" x="755" y="324.33" width="58" height="35.67" rx="7"/><text class="value" x="719" y="255" text-anchor="middle">32.03</text><text class="value" x="784" y="316" text-anchor="middle">11.89</text><text class="label" x="751" y="390" text-anchor="middle">Agave/ZChain src</text>
  <rect class="enc" x="840" y="18" width="14" height="14" rx="2"/><text class="label" x="860" y="30">Encode</text><rect class="dec" x="840" y="40" width="14" height="14" rx="2"/><text class="label" x="860" y="52">Decode</text>
  <text class="sub" x="70" y="435">Native codec baseline only. Integration-level performance is reported separately.</text>
</svg>